<svg width="50" height="55" viewBox="0 0 50 55" fill="none" xmlns="http://www.w3.org/2000/svg">
<path d="M13.8153 3.73228C7.83864 5.77584 2.27867 7.67257 1.47137 7.95401L0 8.45573L0.052084 19.7994C0.104168 32.1342 0.065105 31.4611 0.872406 34.4347C3.02087 42.3153 9.29699 48.7519 19.0106 53.0226C20.5341 53.6956 23.0602 54.5889 24.2321 54.8704C24.9873 55.0539 25.0654 55.0539 26.029 54.7969C29.1931 53.9771 33.2296 52.1905 36.4588 50.1959C43.0734 46.121 47.4615 40.6755 49.1542 34.4347C49.9615 31.4611 49.9225 32.1342 49.9746 19.7994C50.0267 8.98191 50.0136 8.45573 49.7923 8.38231C46.511 7.19532 25.1956 -0.0122185 24.9873 1.90735e-05C24.818 1.90735e-05 19.7919 1.67648 13.8153 3.73228ZM35.4952 7.80717L45.7818 11.3192L45.8209 18.7837C45.8599 27.2149 45.7427 30.0417 45.261 32.2443C43.8156 38.8767 39.2323 44.3221 31.9145 48.1401C30.3519 48.9477 28.1904 49.8532 26.4717 50.4161L25.0003 50.8811L23.8024 50.4773C14.4793 47.3324 7.92978 41.6545 5.42975 34.5693C4.32297 31.4122 4.1537 29.3074 4.20578 18.7837L4.24484 11.3314L14.5314 7.80717C20.1956 5.87374 24.9092 4.28294 25.0133 4.28294C25.1175 4.28294 29.8441 5.8615 35.4952 7.80717Z" fill="black"/>
<path d="M28.425 25.3545L20.8468 32.4764L17.4223 29.2581L15.0989 27.0746C14.4873 26.4999 13.5343 26.4999 12.9227 27.0746L12.4743 27.496L12.1828 27.7699C11.5152 28.3974 11.5152 29.458 12.1828 30.0855L15.8988 33.5778L19.7587 37.2052C20.3703 37.7799 21.3233 37.7799 21.9349 37.2052L29.9615 29.6619L37.8442 22.2539C38.5119 21.6264 38.5119 20.5658 37.8442 19.9383L37.5397 19.6521L37.1043 19.243C36.4928 18.6683 35.5397 18.6683 34.9282 19.243L28.425 25.3545Z" fill="#FFCC1B"/>
</svg>
