<svg width="17" height="24" viewBox="0 0 17 24" fill="none" xmlns="http://www.w3.org/2000/svg">
<path d="M7.48965 0.00980568C4.0949 0.478914 1.44352 2.78693 0.729874 5.91119C0.546508 6.70867 0.516773 7.94712 0.650581 8.88064C0.952888 10.9119 2.063 13.492 3.65878 15.875C3.82232 16.119 3.94622 16.3207 3.93631 16.3254C3.9264 16.3348 3.70834 16.4098 3.45064 16.4943C2.13238 16.9399 1.03714 17.6577 0.477126 18.4504C-0.117576 19.2902 -0.157222 20.2894 0.363142 21.1854C0.601022 21.5888 1.32458 22.2737 1.83007 22.5692C2.98974 23.2447 4.74907 23.742 6.63229 23.9296C7.57886 24.0235 9.42739 24.0235 10.3541 23.9296C12.9906 23.6669 14.9978 22.9398 16.093 21.8562C16.7323 21.2229 16.99 20.6693 16.9999 19.9188C17.0049 19.1869 16.767 18.6334 16.1673 18.0048C15.6321 17.4512 14.517 16.8086 13.4862 16.4708C13.2682 16.3958 13.0848 16.3348 13.0749 16.3301C13.0699 16.3254 13.2285 16.0674 13.4268 15.7625C15.1018 13.2105 16.1079 10.7899 16.3854 8.63671C16.4548 8.09723 16.4548 6.91039 16.3854 6.45535C15.9642 3.67354 13.957 1.33269 11.2065 0.403858C10.2748 0.0942459 9.82386 0.0191879 8.67906 0.00511551C8.10913 -0.00426674 7.5739 0.000423431 7.48965 0.00980568ZM9.89324 1.75958C10.7704 1.96599 11.6228 2.35066 12.3018 2.84322C12.723 3.15283 13.3921 3.84242 13.6894 4.274C14.4427 5.36702 14.7351 6.39906 14.6855 7.78762C14.5963 10.4146 13.0848 13.6186 10.2649 17.1792C9.64545 17.9532 8.56011 19.2151 8.5056 19.2151C8.45109 19.2151 7.4054 18.0001 6.7661 17.1979C5.16536 15.1855 3.95118 13.2199 3.20284 11.4373C1.75078 7.96588 2.05804 5.32011 4.1395 3.35455C5.08111 2.45855 6.14166 1.92846 7.45992 1.6939C8.01497 1.59539 9.33818 1.62823 9.89324 1.75958ZM5.33386 18.169C6.3052 19.4121 7.82169 21.0821 8.08435 21.1994C8.31232 21.3026 8.69888 21.3026 8.92685 21.1994C9.1796 21.0868 10.4483 19.703 11.4543 18.4411C11.7219 18.1033 11.9549 17.8172 11.9747 17.7937C12.0292 17.7327 13.0699 18.0845 13.734 18.3942C15.2456 19.0978 15.6272 19.8859 14.8441 20.6928C14.1206 21.4387 12.4851 22.0157 10.3145 22.2924C9.53146 22.391 7.63833 22.405 6.89495 22.3206C5.04642 22.1001 3.62409 21.692 2.71221 21.115C1.2998 20.2284 1.48812 19.2292 3.22762 18.4129C3.68852 18.1971 4.80854 17.7843 4.98695 17.7656C5.00182 17.7609 5.1604 17.9438 5.33386 18.169Z" fill="black"/>
<path d="M7.56897 3.1482C5.6461 3.56102 4.23369 4.93082 3.90165 6.70874C3.83226 7.06995 3.83226 7.90496 3.90165 8.26618C4.23369 10.0488 5.67584 11.4467 7.57888 11.8267C8.015 11.9158 8.99626 11.9158 9.43237 11.8267C11.3552 11.442 12.8123 10.0159 13.1146 8.21926C13.2137 7.66572 13.1542 6.76034 12.9907 6.24432C12.5347 4.78539 11.3602 3.6783 9.80902 3.23734C9.44228 3.13413 9.25892 3.11068 8.62952 3.0966C8.1042 3.08253 7.79199 3.10129 7.56897 3.1482ZM9.17467 4.79008C10.483 5.10439 11.4296 6.23025 11.4296 7.47338C11.4296 7.94249 11.3552 8.24272 11.1223 8.70245C10.7556 9.43425 9.93787 10.0441 9.11024 10.2036C8.14881 10.3912 7.15268 10.1051 6.44895 9.43425C6.05248 9.06366 5.73531 8.52888 5.63619 8.05977C5.26946 6.36629 6.66205 4.73379 8.48085 4.72441C8.70386 4.71972 9.01608 4.75255 9.17467 4.79008Z" fill="black"/>
</svg>
