<svg width="295" height="117" viewBox="0 0 295 117" fill="none" xmlns="http://www.w3.org/2000/svg">
<path d="M30.9088 17.7531L0 35.5051V72.7299V110H10.4853H20.9706V78.617V47.1888L41.2574 35.5956C52.3809 29.1651 61.6353 23.9572 61.7721 23.9572C61.9088 23.9572 62 26.7649 62 30.1614L62.0456 36.4108L77.0441 44.9698L92.0882 53.5288V75.6735V97.7729H69.75H47.4118L47.5029 83.2362L47.6397 68.6995L53.0191 65.5748C55.9824 63.8539 58.5809 62.45 58.8544 62.45C59.0824 62.45 59.2647 67.3409 59.2647 74.6772V86.9043H70.4338H81.603V73.1827V59.5065L71.8015 53.9363L62 48.3209L48.7794 55.9289L35.5588 63.4916V86.7232V110H69.2941H103.029V78.617V47.2793L87.8485 38.6298L72.7132 29.9802L72.5765 17.9342L72.4853 5.88824L67.2427 2.94467C64.3706 1.31438 61.9544 -0.0441818 61.9088 0.00110626C61.8177 0.00110626 47.8677 8.01667 30.9088 17.7531Z" fill="#FFCC1B"/>
<path d="M81.2382 17.7078L81.375 24.5459L96.4191 33.1955L111.463 41.8451L111.6 75.9452L111.691 110H117.846H124V72.7299V35.4598L102.574 23.1874L81.1014 10.9149L81.2382 17.7078Z" fill="#FFCC1B"/>
<path d="M156.132 50.2104L168.185 35H174.794V69.8988H167.334V46.6329L156.132 60.9186L144.955 46.7303V69.8988H137.471V35H144.202L156.132 50.2104Z" fill="black"/>
<path d="M221.812 35V69.8988H214.352V35H221.812ZM197.926 69.8988H183.736V35H191.22V46.4626H197.926C201.498 46.4626 204.463 47.6064 206.82 49.8454C209.177 52.0843 210.367 54.8831 210.367 58.1929C210.367 61.527 209.177 64.3014 206.82 66.5403C204.463 68.7793 201.498 69.8988 197.926 69.8988ZM191.22 63.1819H197.683C199.166 63.1819 200.405 62.7195 201.401 61.746C202.397 60.7725 202.908 59.6044 202.908 58.1929C202.908 56.8057 202.397 55.6375 201.401 54.664C200.405 53.6906 199.166 53.2038 197.683 53.2038H191.22V63.1819Z" fill="black"/>
<path d="M133 103.055H134.993C135.114 102.933 135.308 102.739 135.551 102.447C135.794 102.155 136.256 101.522 136.888 100.5C137.52 99.4776 138.054 98.3581 138.54 97.1413C139.026 95.9244 139.463 94.2939 139.852 92.2009C140.241 90.1323 140.46 87.942 140.46 85.6057V74.8732H164.588V103.055H168.841V117H161.357V109.772H140.46V117H133V103.055ZM147.919 85.6057C147.919 87.942 147.725 90.1323 147.336 92.1766C146.948 94.2452 146.51 95.9001 145.976 97.1656C145.441 98.4311 144.931 99.5263 144.396 100.451C143.862 101.376 143.4 102.057 143.06 102.447L142.452 103.055H157.129V81.6145H147.919V85.6057Z" fill="black"/>
<path d="M180.285 92.3469C180.285 95.5594 181.355 98.2851 183.541 100.475C185.704 102.69 188.353 103.785 191.463 103.785C194.573 103.785 197.222 102.69 199.384 100.475C201.571 98.2851 202.64 95.5594 202.64 92.3469C202.64 89.1345 201.571 86.4088 199.384 84.1942C197.222 81.9795 194.573 80.86 191.463 80.86C188.353 80.86 185.704 81.9795 183.541 84.1942C181.355 86.4088 180.285 89.1345 180.285 92.3469ZM172.558 92.3226C172.558 87.3093 174.381 83.026 178.026 79.4728C181.67 75.9197 186.166 74.1431 191.463 74.1431C196.76 74.1431 201.255 75.9197 204.9 79.4728C208.545 83.026 210.367 87.3093 210.367 92.3226C210.367 97.336 208.545 101.644 204.9 105.197C201.255 108.75 196.76 110.526 191.463 110.526C186.166 110.526 181.67 108.75 178.026 105.197C174.381 101.644 172.558 97.336 172.558 92.3226Z" fill="black"/>
<path d="M236.027 90.0836L248.079 74.8732H254.688V109.772H247.229V86.5061L236.027 100.792L224.849 86.6035V109.772H217.365V74.8732H224.096L236.027 90.0836Z" fill="black"/>
<path d="M281.563 95.0727L277.335 83.6101L273.082 95.0727H281.563ZM284.041 101.546H270.604L267.615 109.772H259.645L273.35 74.8732H281.295L295 109.772H287.03L284.041 101.546Z" fill="black"/>
</svg>
