<svg width="121" height="48" viewBox="0 0 121 48" fill="none" xmlns="http://www.w3.org/2000/svg">
<path d="M12.4632 7.32481L0 14.6491V30.0078V45.3852H4.22794H8.45589V32.4368V19.4698L16.636 14.6865C21.1213 12.0333 24.853 9.88459 24.9081 9.88459C24.9633 9.88459 25 11.043 25 12.4444L25.0184 15.0228L31.0662 18.5542L37.1324 22.0856V31.2223V40.3404H28.125H19.1177L19.1544 34.3427L19.2096 28.3449L21.3787 27.0557C22.5735 26.3457 23.6213 25.7665 23.7316 25.7665C23.8235 25.7665 23.8971 27.7844 23.8971 30.8113V35.8561H28.4008H32.9044V30.1947V24.552L28.9522 22.2538L25 19.9369L19.6691 23.0759L14.3382 26.1962V35.7814V45.3852H27.9412H41.5441V32.4368V19.5071L35.4228 15.9384L29.3199 12.3696L29.2647 7.39955L29.228 2.42946L27.114 1.21496C25.9559 0.54232 24.9816 -0.018219 24.9633 0.000465393C24.9265 0.000465393 19.3015 3.30763 12.4632 7.32481Z" fill="#FFCC1B"/>
<path d="M32.7574 7.30612L32.8126 10.1275L38.8787 13.6962L44.9449 17.265L45.0001 31.3344L45.0368 45.3852H47.5185H50.0001V30.0078V14.6305L41.3604 9.56695L32.7023 4.50344L32.7574 7.30612Z" fill="#FFCC1B"/>
<path d="M63.5671 20.6769L68.5517 14.4544H71.2851V28.7312H68.1999V19.2134L63.5671 25.0575L58.9444 19.2532V28.7312H55.8491V14.4544H58.6328L63.5671 20.6769Z" fill="white"/>
<path d="M90.7309 14.4544V28.7312H87.6457V14.4544H90.7309ZM80.8523 28.7312H74.9833V14.4544H78.0786V19.1437H80.8523C82.3295 19.1437 83.5556 19.6116 84.5304 20.5275C85.5052 21.4435 85.9976 22.5884 85.9976 23.9424C85.9976 25.3064 85.5052 26.4414 84.5304 27.3573C83.5556 28.2733 82.3295 28.7312 80.8523 28.7312ZM78.0786 25.9834H80.7518C81.3648 25.9834 81.8773 25.7942 82.2893 25.396C82.7014 24.9978 82.9124 24.5199 82.9124 23.9424C82.9124 23.3749 82.7014 22.8971 82.2893 22.4988C81.8773 22.1006 81.3648 21.9015 80.7518 21.9015H78.0786V25.9834Z" fill="white"/>
<path d="M54 42.2952H54.8241C54.8743 42.2455 54.9547 42.1658 55.0552 42.0463C55.1557 41.9269 55.3466 41.668 55.6079 41.2499C55.8692 40.8317 56.0903 40.3737 56.2913 39.8759C56.4923 39.3781 56.6732 38.7111 56.834 37.8549C56.9948 37.0086 57.0852 36.1126 57.0852 35.1568V30.7662H67.0643V42.2952H68.823V48H65.7278V45.0431H57.0852V48H54V42.2952ZM60.1704 35.1568C60.1704 36.1126 60.09 37.0086 59.9292 37.8449C59.7684 38.6912 59.5875 39.3682 59.3664 39.8859C59.1453 40.4036 58.9343 40.8516 58.7132 41.23C58.4921 41.6083 58.3012 41.887 58.1605 42.0463L57.9093 42.2952H63.9792V33.524H60.1704V35.1568Z" fill="white"/>
<path d="M73.5563 37.9146C73.5563 39.2288 73.9985 40.3439 74.903 41.2399C75.7974 42.1459 76.8928 42.5939 78.1791 42.5939C79.4654 42.5939 80.5608 42.1459 81.4552 41.2399C82.3597 40.3439 82.8019 39.2288 82.8019 37.9146C82.8019 36.6004 82.3597 35.4854 81.4552 34.5794C80.5608 33.6734 79.4654 33.2154 78.1791 33.2154C76.8928 33.2154 75.7974 33.6734 74.903 34.5794C73.9985 35.4854 73.5563 36.6004 73.5563 37.9146ZM70.3606 37.9047C70.3606 35.8537 71.1143 34.1015 72.6217 32.6479C74.1291 31.1943 75.9883 30.4676 78.1791 30.4676C80.3699 30.4676 82.229 31.1943 83.7365 32.6479C85.2439 34.1015 85.9976 35.8537 85.9976 37.9047C85.9976 39.9556 85.2439 41.7178 83.7365 43.1714C82.229 44.6249 80.3699 45.3517 78.1791 45.3517C75.9883 45.3517 74.1291 44.6249 72.6217 43.1714C71.1143 41.7178 70.3606 39.9556 70.3606 37.9047Z" fill="white"/>
<path d="M96.6099 36.9887L101.594 30.7662H104.328V45.0431H101.243V35.5252L96.6099 41.3693L91.9871 35.565V45.0431H88.8919V30.7662H91.6756L96.6099 36.9887Z" fill="white"/>
<path d="M115.443 39.0297L113.694 34.3404L111.935 39.0297H115.443ZM116.468 41.678H110.91L109.674 45.0431H106.378L112.046 30.7662H115.332L121 45.0431H117.704L116.468 41.678Z" fill="white"/>
</svg>
