<svg width="23" height="19" viewBox="0 0 23 19" fill="none" xmlns="http://www.w3.org/2000/svg">
<path d="M2.56932 0.102074C1.43817 0.39381 0.533255 1.2372 0.15082 2.3458L0 2.78075V9.06635V15.352L0.15082 15.7869C0.533255 16.9061 1.44356 17.7442 2.59087 18.0306C2.99485 18.1314 3.22108 18.1367 11.5 18.1367C19.7789 18.1367 20.0052 18.1314 20.4091 18.0306C21.5564 17.7442 22.4667 16.9061 22.8492 15.7869L23 15.352V9.06635V2.78075L22.8492 2.3458C22.4667 1.22659 21.5564 0.388506 20.4091 0.102074C20.0052 -0.00401115 19.7843 -0.00401115 11.4785 0.00129318C3.27494 0.00129318 2.94637 0.00659752 2.56932 0.102074ZM20.0375 2.44127C20.3607 2.60571 20.5977 2.91336 20.6192 3.19979L20.63 3.40135L16.1054 6.12777C13.1859 7.8888 11.5431 8.84888 11.4731 8.83296C11.4138 8.82236 9.34005 7.59706 6.86768 6.10655L2.37002 3.40135L2.3808 3.20509C2.40773 2.81788 2.7363 2.4731 3.19953 2.3511C3.39344 2.29806 5.26253 2.28745 11.6077 2.29275L19.7735 2.30336L20.0375 2.44127ZM6.75995 8.70566C8.96838 10.0317 10.8482 11.1563 10.9398 11.204C11.193 11.3313 11.5 11.3631 11.7639 11.2942C11.9363 11.2517 18.6855 7.26819 20.4468 6.1702L20.6569 6.03759L20.6461 10.5728L20.63 15.1027L20.4684 15.3307C20.3714 15.4687 20.1991 15.6119 20.0375 15.6914L19.7735 15.8293H11.5H3.22646L2.96253 15.6914C2.80094 15.6119 2.62857 15.4687 2.53162 15.3307L2.37002 15.1027L2.35386 10.5728L2.34309 6.03759L2.54239 6.1649C2.6555 6.23385 4.55152 7.37958 6.75995 8.70566Z" fill="black"/>
</svg>
