<svg width="22" height="15" viewBox="0 0 22 15" fill="none" xmlns="http://www.w3.org/2000/svg">
<path d="M1.53899 0.0558414C0.837615 0.274622 0.312844 0.786765 0.100917 1.47294C0.00504587 1.77625 0 1.95028 0 7.49436C0 12.8793 0.00504587 13.2224 0.0908257 13.4959C0.322936 14.2169 0.933486 14.7837 1.67018 14.9478C1.97798 15.0174 20.022 15.0174 20.3298 14.9478C21.0665 14.7837 21.6771 14.2169 21.9092 13.4959C21.995 13.2224 22 12.8793 22 7.49436C22 1.95028 21.995 1.77625 21.8991 1.47294C21.7124 0.876266 21.3087 0.42379 20.7083 0.150315L20.4106 0.0110912L11.0757 0.00114727C3.64817 -0.00382519 1.70046 0.00611877 1.53899 0.0558414ZM20.1179 0.871294C20.1583 0.896155 18.5335 2.33811 15.5867 4.89883L11 8.88659L6.4133 4.89883C3.53211 2.39281 1.84679 0.891183 1.88211 0.871294C1.96284 0.821571 20.0372 0.821571 20.1179 0.871294ZM4.17294 4.12813L6.91284 6.50488L5.26284 8.35456C4.35459 9.37388 3.01239 10.8805 2.27569 11.7108C0.963762 13.1826 0.933486 13.2125 0.893119 13.0683C0.872936 12.9837 0.862844 10.4181 0.86789 7.36011C0.883028 2.19392 0.888073 1.78619 0.968807 1.60719L1.05963 1.41824L1.24633 1.58233C1.35229 1.67183 2.66927 2.81545 4.17294 4.12813ZM21.1321 7.37502C21.1372 10.4429 21.1271 13.0036 21.1018 13.0633C21.0665 13.1627 20.7486 12.8246 18.0995 9.85121C16.4697 8.02142 15.1427 6.50488 15.1528 6.48499C15.1578 6.46013 16.4596 5.3165 18.039 3.93919L20.9151 1.43813L21.0161 1.61714C21.117 1.79614 21.117 1.90553 21.1321 7.37502ZM9.27431 8.5634C10.0615 9.2446 10.7729 9.8363 10.8537 9.8711C10.9697 9.92083 11.0303 9.92083 11.1514 9.8711C11.2321 9.8363 11.994 9.19985 12.8417 8.46395C13.6895 7.72308 14.406 7.12144 14.4312 7.12144C14.4564 7.12144 15.844 8.6529 17.5092 10.5274L20.5417 13.9285L20.35 14.0329C20.1583 14.1323 20.128 14.1323 11 14.1323C1.93761 14.1323 1.84174 14.1323 1.66009 14.0329L1.47844 13.9334L4.52615 10.5125L7.57385 7.0916L7.71009 7.20597C7.78578 7.27061 8.4922 7.87722 9.27431 8.5634Z" fill="black"/>
</svg>
