<svg width="24" height="25" viewBox="0 0 24 25" fill="none" xmlns="http://www.w3.org/2000/svg">
<path d="M4.16568 1.05792C3.24238 1.25479 2.57135 1.69394 1.85996 2.56719C0.901342 3.74331 0.285811 5.04561 0.0688608 6.36811C-0.047182 7.0647 -0.0118646 8.40234 0.139496 9.10902C0.432125 10.4618 1.09811 11.9408 2.10213 13.4702C3.36347 15.3884 5.4926 17.8567 7.30893 19.5174C10.8407 22.7429 13.3684 24.3026 15.9415 24.8579C16.6529 25.0144 18.1564 25.0295 18.8123 24.8882C20.9112 24.4389 22.788 23.2073 23.5701 21.7687C23.8576 21.2488 23.9636 20.8197 23.9939 20.1282C24.0393 19.1237 23.8375 18.4877 23.2169 17.6598C22.7931 17.0945 21.1786 15.4641 20.8103 15.2369C20.0787 14.7726 19.3471 14.5555 18.5298 14.5555C17.5863 14.5555 16.89 14.8281 16.108 15.4944C15.5631 15.9638 15.4218 16.0496 15.0283 16.1506C14.66 16.2465 14.3522 16.2263 13.8628 16.0698C12.9496 15.7871 11.3755 14.606 10.432 13.4904C9.21606 12.0569 8.72667 11.0928 8.78217 10.2599C8.81748 9.8056 8.98398 9.47246 9.4431 8.93235C10.1444 8.11462 10.437 7.36251 10.437 6.37821C10.437 5.54534 10.21 4.80333 9.76601 4.1875C9.50365 3.82407 7.78823 2.1028 7.37956 1.79489C6.92043 1.4466 6.30995 1.14374 5.871 1.05288C5.42701 0.962017 4.61471 0.962017 4.16568 1.05792ZM5.94668 2.87005C6.26454 3.03663 6.48654 3.22844 7.31902 4.05122C7.86896 4.59132 8.38358 5.13647 8.46431 5.26267C8.70649 5.64629 8.78721 5.97439 8.76198 6.47412C8.73676 7.03441 8.60558 7.32213 8.12123 7.89252C7.39974 8.74054 7.15757 9.31093 7.12225 10.2397C7.10207 10.7697 7.1172 10.906 7.2282 11.3401C7.61669 12.8393 9.02434 14.7473 10.7902 16.1657C12.662 17.675 14.2362 18.1697 15.6842 17.7053C16.1685 17.5538 16.4713 17.3721 17.0263 16.9229C17.2735 16.721 17.6166 16.4938 17.7881 16.4131C18.4036 16.1203 19.1907 16.1859 19.7709 16.5695C20.0938 16.7866 21.7941 18.518 22.001 18.8461C22.2482 19.2297 22.344 19.5426 22.344 19.9465C22.344 20.744 22.0615 21.269 21.3299 21.8545C18.7568 23.9089 16.0676 23.808 12.5309 21.5314C10.9466 20.5118 8.37349 18.3413 7.04152 16.9027C4.29181 13.9346 2.70253 11.6127 2.03654 9.5936C1.37056 7.56442 1.5976 5.87344 2.77821 4.15217C3.20706 3.52121 3.61574 3.09215 3.96891 2.90539C4.37254 2.68834 4.5794 2.6429 5.1142 2.65805C5.53297 2.67319 5.59856 2.68834 5.94668 2.87005Z" fill="black"/>
</svg>
