<svg width="35" height="36" viewBox="0 0 35 36" fill="none" xmlns="http://www.w3.org/2000/svg">
<path d="M17.5385 35.5H17.4615C7.83332 35.5 0 27.6667 0 18.0385V17.9615C0 8.33332 7.83332 0.5 17.4615 0.5H17.5385C27.1667 0.5 35 8.33332 35 17.9615V18.0385C35 27.6667 27.1667 35.5 17.5385 35.5ZM17.4615 1.68471C8.48609 1.68471 1.18471 8.98609 1.18471 17.9615V18.0385C1.18471 27.0139 8.48609 34.3153 17.4615 34.3153H17.5385C26.5139 34.3153 33.8153 27.0139 33.8153 18.0385V17.9615C33.8153 8.98609 26.5139 1.68471 17.5385 1.68471H17.4615Z" fill="none"/>
<path d="M6.99697 17.4221C7.04436 17.3985 7.09177 17.3759 7.13797 17.3546C7.94121 16.9826 8.75511 16.6343 9.56782 16.286C9.61166 16.286 9.68509 16.235 9.72655 16.2185C9.78934 16.1912 9.85214 16.1652 9.91493 16.1379C10.0358 16.0858 10.1566 16.0348 10.2763 15.9827C10.518 15.8796 10.7584 15.7766 11.0001 15.6735C11.4823 15.4674 11.9645 15.2612 12.4467 15.0539C13.411 14.6416 14.3766 14.2281 15.3409 13.8159C16.3053 13.4036 17.2708 12.9901 18.2352 12.5778C19.1995 12.1656 20.1651 11.7521 21.1294 11.3398C22.0938 10.9275 23.0593 10.5141 24.0237 10.1018C24.2381 10.0094 24.4703 9.87196 24.7002 9.83168C24.8933 9.79732 25.0816 9.73099 25.2759 9.69426C25.6444 9.62436 26.0507 9.59592 26.4038 9.74875C26.5258 9.80207 26.6384 9.87669 26.7319 9.97028C27.1798 10.4134 27.117 11.1408 27.0222 11.764C26.3623 16.1071 25.7024 20.4515 25.0414 24.7946C24.9513 25.3905 24.8281 26.0445 24.3578 26.4212C23.9597 26.7399 23.3934 26.7754 22.9018 26.6404C22.4101 26.5041 21.9765 26.2186 21.5512 25.9379C19.7872 24.7697 18.0219 23.6016 16.2579 22.4335C15.8385 22.1562 15.3717 21.7937 15.3765 21.2902C15.3788 20.9869 15.5601 20.7168 15.7449 20.4763C17.2779 18.4765 19.4898 17.1023 21.1354 15.1949C21.3676 14.926 21.55 14.4402 21.2313 14.285C21.0418 14.1926 20.8238 14.3182 20.6508 14.4378C18.4757 15.9483 16.3017 17.46 14.1266 18.9705C13.417 19.4634 12.673 19.9704 11.8176 20.0913C11.0523 20.2003 10.2822 19.987 9.54176 19.769C8.92097 19.5866 8.30135 19.3994 7.68411 19.2063C7.35594 19.1044 7.01711 18.9942 6.76358 18.7632C6.51006 18.5322 6.36435 18.1436 6.51718 17.8356C6.61314 17.6425 6.79915 17.5205 6.99463 17.421L6.99697 17.4221Z" fill="currentColor"/>
</svg>
