<svg width="64" height="55" viewBox="0 0 64 55" fill="none" xmlns="http://www.w3.org/2000/svg">
<path d="M21.9365 0.157295C21.399 0.381996 21.1739 0.629169 18.3737 4.15701C16.986 5.92094 15.8234 7.38151 15.7984 7.40398C15.7734 7.42645 13.7357 8.02191 11.2855 8.72973C8.82274 9.42631 6.67253 10.0892 6.49751 10.2128C6.32249 10.3251 6.08497 10.5723 5.94746 10.7745C5.73494 11.1003 5.72243 11.4262 5.73494 15.4821L5.74744 19.8301L2.99717 23.1782C1.49702 25.0095 0.196894 26.6161 0.121887 26.7285C-0.040629 27.0093 -0.040629 28.043 0.121887 28.3239C0.196894 28.4362 1.49702 30.0428 3.00967 31.8742L5.74744 35.2223L5.73494 39.5703C5.72243 43.6374 5.73494 43.9407 5.94746 44.2778C6.08497 44.48 6.32249 44.7272 6.49751 44.8396C6.67253 44.9632 8.82274 45.626 11.2855 46.3226L15.7609 47.6034L18.3862 50.9066C19.8238 52.7267 21.1864 54.367 21.424 54.558C22.2365 55.2433 22.3366 55.2321 27.4371 53.7041L32 52.3334L36.5629 53.7041C41.5634 55.1984 41.726 55.2321 42.501 54.6479C42.7511 54.4456 47.2015 48.9966 48.1391 47.7158C48.1891 47.6596 50.2393 47.0417 52.702 46.3338C55.1648 45.6373 57.3275 44.9632 57.5025 44.8508C57.6775 44.7272 57.915 44.48 58.04 44.289C58.2526 43.9632 58.2776 43.6037 58.2651 39.5815L58.2526 35.2223L61.0028 31.8742C62.503 30.0428 63.8031 28.4362 63.8781 28.3239C64.0406 28.043 64.0406 27.0093 63.8781 26.7285C63.8031 26.6161 62.503 25.0095 61.0028 23.1782L58.2526 19.8301L58.2651 15.4708C58.2776 11.4486 58.2526 11.0891 58.04 10.7633C57.915 10.5723 57.6775 10.3251 57.5025 10.2015C57.3275 10.0892 55.1648 9.41507 52.702 8.71849L48.2266 7.44892L45.6138 4.14578C44.1762 2.32568 42.8136 0.685349 42.576 0.49435C41.7635 -0.190998 41.6634 -0.17976 36.5629 1.34822L32 2.71891L27.4621 1.35946C24.9743 0.606701 22.7991 0 22.6241 0C22.4491 0.0112381 22.149 0.0786476 21.9365 0.157295ZM27.4996 5.12324C29.6748 5.77488 31.6625 6.31417 31.9375 6.31417C32.275 6.3254 33.8002 5.92094 36.4879 5.112C38.7007 4.44913 40.5633 3.95478 40.6133 3.99972C40.6758 4.0559 41.826 5.50523 43.1886 7.22422C44.5512 8.9432 45.7763 10.4038 45.9139 10.4712C46.0514 10.5386 47.1015 10.8532 48.2391 11.179C49.3767 11.5048 51.2269 12.0329 52.352 12.3475L54.3772 12.9317V16.9988C54.3772 20.639 54.4022 21.0996 54.5897 21.3468C54.7022 21.5041 55.8898 22.9535 57.215 24.5713L59.6402 27.5262L57.215 30.4698C55.8898 32.0989 54.7022 33.5482 54.5897 33.7055C54.4022 33.9527 54.3772 34.4133 54.3772 38.0535V42.1207L52.1645 42.7611C46.889 44.2553 46.1389 44.48 45.9014 44.5924C45.7638 44.6598 44.5512 46.1091 43.1886 47.8281C41.826 49.5471 40.6758 50.9964 40.6133 51.0526C40.5633 51.0976 38.7132 50.6032 36.4879 49.9403C34.2752 49.2775 32.25 48.7269 32 48.7269C31.75 48.7269 29.7248 49.2775 27.5121 49.9403C25.2868 50.6032 23.4367 51.0976 23.3867 51.0526C23.3242 50.9964 22.174 49.5471 20.8114 47.8281C19.3363 45.9743 18.2112 44.6486 18.0111 44.5587C17.8361 44.48 16.8485 44.1655 15.8109 43.8846C14.7858 43.5925 12.9606 43.0756 11.7855 42.7274L9.62282 42.1207V38.031V33.9527L8.77273 32.9078C8.31019 32.3236 7.12257 30.8742 6.14748 29.6833L4.3723 27.5262L6.14748 25.3578C7.12257 24.1781 8.31019 22.7287 8.77273 22.1445L9.62282 21.0996V17.01V12.9317L11.7855 12.3137C12.9606 11.9767 14.7858 11.4599 15.8109 11.1678C16.8485 10.8869 17.8486 10.5611 18.0361 10.4599C18.2487 10.3588 19.4363 8.96567 20.9114 7.10063C22.2991 5.35918 23.4617 3.93231 23.4992 3.93231C23.5367 3.93231 25.3368 4.46037 27.4996 5.12324Z" fill="black"/>
<path d="M42.0012 19.4485C41.8262 19.5047 38.7009 22.2348 35.0631 25.5043L28.4374 31.4589L25.3746 28.7063C22.1243 25.7851 21.8743 25.6166 20.9617 25.7964C19.8866 25.9986 19.374 26.5716 19.374 27.5491C19.374 28.0546 19.4365 28.2456 19.7366 28.6052C19.9366 28.8411 21.6993 30.4702 23.6369 32.2117C27.7373 35.8743 27.9749 36.0204 29.225 35.5597C29.7875 35.3463 44.1514 22.5045 44.439 21.954C44.714 21.4371 44.6765 20.5833 44.3765 20.1339C43.9389 19.5047 42.8013 19.1676 42.0012 19.4485Z" fill="#FFCC1B"/>
</svg>
