<svg width="60" height="55" viewBox="0 0 60 55" fill="none" xmlns="http://www.w3.org/2000/svg">
<path d="M28.337 13.4636C22.6529 14.1297 18.0938 17.0624 15.6678 21.6173C14.4724 23.8626 13.9567 26.1185 14.0739 28.5464C14.1794 30.8776 14.7068 32.6931 15.8319 34.7127C18.047 38.6768 22.1138 41.4699 27.0127 42.3723C28.5597 42.6516 31.642 42.6301 33.2242 42.3185C39.5647 41.0724 44.3698 36.5819 45.6473 30.7272C45.952 29.3091 45.9286 26.4838 45.5887 25.0335C44.2526 19.3399 39.4358 14.9032 33.2828 13.7215C32.1694 13.5066 29.2746 13.3562 28.337 13.4636ZM31.9233 16.8906C35.7909 17.5029 39.1311 19.7159 40.8656 22.842C41.5454 24.0774 41.8618 24.9476 42.1079 26.226C43.1041 31.5436 39.5413 36.9257 33.8337 38.6983C28.2316 40.4493 21.7973 38.043 19.09 33.1765C18.4103 31.9411 18.0938 31.0709 17.8477 29.7925C17.4024 27.4292 17.8126 25.141 19.09 22.842C21.4692 18.5664 26.8134 16.0849 31.9233 16.8906Z" fill="#FFCC1B"/>
<path d="M33.5524 23.6586C33.3531 23.7446 32.146 24.8618 30.8568 26.1295L28.5245 28.4499L27.587 27.5905C26.4736 26.5914 26.3095 26.5054 25.5594 26.5054C24.8211 26.5054 24.2819 26.8062 24.0007 27.3971C23.4967 28.4069 23.6491 28.697 25.7352 30.6306C27.7862 32.5321 28.2081 32.7362 29.2512 32.4032C29.8137 32.2206 35.9081 26.2046 36.0839 25.6568C36.5292 24.2817 34.9353 23.0355 33.5524 23.6586Z" fill="#FFCC1B"/>
<path d="M29.021 0.203869C28.3764 0.590607 28.2944 0.805462 28.2358 2.30944L28.1772 3.70599L27.1927 3.79193C21.5672 4.25387 15.7775 6.79989 11.5935 10.635C7.40954 14.4702 4.63192 19.7771 4.12797 24.9336L4.03421 25.836L2.51062 25.8897C0.869837 25.9434 0.635439 26.0186 0.213522 26.6095C-0.0794749 27.0177 -0.0794749 27.9845 0.213522 28.3927C0.635439 28.9836 0.869837 29.0588 2.51062 29.1125L4.03421 29.1662L4.12797 30.0686C4.35065 32.389 5.29996 35.4722 6.47195 37.7282C9.51912 43.5937 15.0978 48.1164 21.743 50.1253C23.4775 50.6516 25.6809 51.0921 27.1927 51.2103L28.1772 51.2962L28.2358 52.6928C28.2944 54.1967 28.3764 54.4116 29.021 54.7983C29.4664 55.0669 30.5212 55.0669 30.9665 54.7983C31.6111 54.4116 31.6932 54.1967 31.7518 52.6928L31.8104 51.3069L33.123 51.1673C42.9677 50.1682 51.4998 43.7871 54.6642 35.0962C55.2384 33.5278 55.7307 31.4759 55.8596 30.0686L55.9533 29.1662L57.4769 29.1125C59.1177 29.0588 59.3521 28.9836 59.774 28.3927C60.067 27.9845 60.067 27.0177 59.774 26.6095C59.3521 26.0186 59.1177 25.9434 57.4769 25.8897L55.9533 25.836L55.8596 24.9336C55.3556 19.7771 52.5897 14.4809 48.394 10.635C44.1983 6.78915 38.4204 4.25387 32.7948 3.79193L31.8104 3.70599L31.7518 2.30944C31.6932 0.805462 31.6111 0.590607 30.9665 0.203869C30.7438 0.0642128 30.4274 -0.000244141 29.9938 -0.000244141C29.5601 -0.000244141 29.2437 0.0642128 29.021 0.203869ZM28.2358 8.36833C28.2358 9.593 28.2475 9.6682 28.5405 9.99048C29.3257 10.8392 30.5563 10.8714 31.4002 10.0442C31.6697 9.77562 31.6932 9.67894 31.7283 8.4113L31.7752 7.05772L32.6073 7.13292C33.0761 7.17589 34.0489 7.32629 34.7872 7.47668C42.4169 9.04512 48.5698 14.0727 51.1365 20.8406C51.617 22.0868 52.1092 24.0419 52.2147 25.1055L52.2967 25.8682L50.82 25.9112C49.4371 25.9434 49.3316 25.9649 49.0386 26.212C48.5932 26.588 48.394 26.9962 48.394 27.5011C48.394 28.006 48.5932 28.4142 49.0386 28.7902C49.3316 29.0373 49.4371 29.0588 50.82 29.091L52.2967 29.134L52.2147 29.8967C52.1092 30.9603 51.617 32.9154 51.1365 34.1616C48.5698 40.9295 42.4169 45.9571 34.7872 47.5255C34.0489 47.6759 33.0761 47.8263 32.6073 47.8693L31.7752 47.9445L31.7283 46.5802L31.6932 45.2266L31.2478 44.8291C30.8259 44.4316 30.779 44.4209 29.9821 44.4209C29.1617 44.4209 29.1499 44.4209 28.6929 44.8721L28.2358 45.3233V46.6339V47.9445L27.392 47.8693C26.9232 47.8263 25.9387 47.6759 25.2003 47.5255C17.5707 45.9571 11.4177 40.9295 8.85108 34.1616C8.37057 32.9154 7.87833 30.9603 7.77285 29.8967L7.69081 29.134L9.17924 29.091L10.6559 29.0588L11.0896 28.6506C11.5232 28.2638 11.5349 28.2209 11.5349 27.5011C11.5349 26.7813 11.5232 26.7384 11.0896 26.3516L10.6559 25.9434L9.17924 25.9112L7.69081 25.8682L7.77285 25.1055C7.81973 24.6758 7.98381 23.7841 8.14789 23.1073C10.0582 15.2759 16.6917 9.20626 25.2003 7.47668C26.7005 7.17589 27.0286 7.13292 27.7436 7.10069L28.2358 7.08995V8.36833Z" fill="black"/>
</svg>
