<svg width="16" height="16" viewBox="0 0 16 16" fill="none" xmlns="http://www.w3.org/2000/svg">
<path d="M7.27838 1.32477C7.5176 0.59119 8.55539 0.59119 8.79462 1.32477L10.1104 5.35964C10.2174 5.68778 10.5234 5.90983 10.8685 5.90983H15.1203C15.8935 5.90983 16.2142 6.8998 15.5879 7.35318L12.1532 9.83961C11.8726 10.0427 11.7553 10.4036 11.8626 10.7328L13.1758 14.7595C13.4152 15.4937 12.5756 16.1055 11.9501 15.6527L8.50409 13.1581C8.22508 12.9562 7.84792 12.9562 7.56891 13.1581L4.12294 15.6527C3.49743 16.1055 2.65782 15.4937 2.89723 14.7595L4.21037 10.7328C4.31774 10.4036 4.20035 10.0427 3.91984 9.83961L0.485066 7.35318C-0.141233 6.8998 0.17948 5.90983 0.952657 5.90983H5.20446C5.54961 5.90983 5.85557 5.68778 5.96258 5.35964L7.27838 1.32477Z" fill="#FFCC1B"/>
</svg>
